<svg width="361" height="218" viewBox="0 0 361 218" fill="none" xmlns="http://www.w3.org/2000/svg">
<path d="M178.77 110.5V71.68L179.47 70.68C180.52 68.68 181.98 67.43 184.4 67.68L185.4 67.02H188.4L189.4 67.68C190.438 67.6555 191.454 67.9761 192.29 68.5914C193.126 69.2066 193.735 70.0819 194.02 71.08C194.66 73.08 195.4 72.08 196.31 71.67L197.31 70.9C198.71 70.31 199.37 68.41 201.31 68.68L202.31 67.98L206.25 67.68L207.25 67.02H211.25L212.25 67.68L215.2 67.93L216.26 68.66C221.26 70.16 224.54 73.16 225.18 78.55L225.91 79.62C225.977 104.633 226.05 129.633 226.13 154.62C226.13 164.39 226.13 174.17 226.13 183.94C226.13 185.75 226.33 187.57 224.9 189.02L224.16 189.75C223.88 189.938 223.547 190.032 223.21 190.02L222.16 190.74H214.16L213.16 190.02C210.51 189.95 210.16 188.17 210.22 186.09L209.54 185.04L209.41 152.25C212.503 150.597 212.503 148.93 209.41 147.25C209.41 127.563 209.44 107.873 209.5 88.18C209.5 81.95 206.73 81.18 202.58 80.71C197.72 80.16 195.42 82.87 195.38 88.16C195.32 95.9334 195.247 103.703 195.16 111.47L194.44 112.47C194.26 113.086 193.874 113.621 193.346 113.986C192.817 114.35 192.18 114.521 191.54 114.47L190.45 115.22H183.45L182.38 114.49C181.984 114.531 181.584 114.483 181.21 114.35C180.835 114.216 180.495 114.001 180.214 113.719C179.933 113.437 179.719 113.096 179.586 112.721C179.454 112.346 179.408 111.946 179.45 111.55L178.77 110.5Z" fill="black"/>
<path d="M209.41 147.29C212.503 148.943 212.503 150.61 209.41 152.29C207.86 152.67 208.16 155.46 206.5 155.1C201.44 153.99 201.07 157.6 200.5 160.8C198.91 169.87 190.5 173.38 180.35 174.15C178.29 174.3 174.8 172.84 174.76 176.15C174.76 179.08 177.93 179.22 180.54 179.15C184.635 179.021 188.732 179.303 192.77 179.99C200.22 181.35 205.61 185.81 206.31 191.94C207.08 198.65 202.78 206.39 196.02 208.46C183.87 212.19 171.74 212.46 160.08 206.09C156.28 204.01 154.87 200.71 154.68 196.97C154.509 195.176 154.917 193.374 155.846 191.83C156.775 190.285 158.175 189.08 159.84 188.39C162.19 187.39 162.72 186.8 161.3 183.85C158.87 178.85 160.4 173.9 165.68 170.85C157.51 162.85 155.98 153.67 162.12 148.35C168.26 143.03 175.77 141.52 183.6 142.57C186.51 142.96 189.72 143.26 192.33 145.22C194.94 147.18 197.33 144.64 199.43 143.98C204.02 142.58 206.85 143.96 209.41 147.29ZM181.08 190.97C179.665 191.072 178.245 191.072 176.83 190.97C173.99 190.53 172.17 191.97 171.83 194.41C171.51 196.68 172.62 198.41 175.39 199.25C179.412 200.583 183.794 200.3 187.61 198.46C190.88 196.95 190.99 194.7 188.34 192.26C186.03 190.09 183.3 191.49 181.1 190.97H181.08ZM179.76 163.26C183.41 163.59 186.18 161.94 186.3 158.4C186.42 154.86 183.8 153.17 180.12 153.16C176.44 153.15 173.52 154.09 173.53 158.29C173.56 162.18 176.26 163.39 179.78 163.26H179.76Z" fill="black"/>
<path d="M299.21 155.58C299.21 146.8 299.26 138.02 299.21 129.24C299.21 125.71 300 122.82 303.62 121.32C305.258 120.574 307.053 120.238 308.849 120.343C310.646 120.447 312.39 120.989 313.93 121.92C315.64 122.92 316.16 124.51 316.11 126.54C315.98 132 316.16 137.47 316.04 142.93C315.96 146.39 316.2 147.82 320.14 145.42C327.68 140.84 338.07 142.64 343.94 148.7C347.17 152.05 347.56 156.34 347.78 160.41C348.2 168.17 347.96 175.97 347.88 183.76C347.83 189.5 345.62 191.1 338.28 191.03C332.78 190.97 331.06 189.22 331.05 183.59C331.05 177.3 331.05 171.01 331.05 164.71C331.05 159.59 328.05 156.26 323.59 156.24C318.78 156.24 316.09 159.24 316.09 164.75C316.09 171.37 316.02 178 316.09 184.62C316.14 188.24 314.87 191 311.03 190.9C307.03 190.8 301.92 193 300.03 186.67C298.58 181.94 299.5 177.2 299.32 172.47C299.05 166.85 299.21 161.21 299.21 155.58Z" fill="black"/>
<path d="M82.34 172.04H71.9C69.53 172.04 69.4 172.82 70.78 174.64C74.53 179.55 80.61 180.43 88.51 177.24C91.06 176.24 93.66 174.33 96.57 176.51C98.66 178.06 100.67 179.6 100.72 182.57C100.77 185.54 98.61 186.71 96.5 188.07C92.09 190.93 86.85 191.64 82.06 191.68C74.06 191.76 65.72 191.14 59.61 184.34C52.61 176.5 51.75 167.56 54.72 158.04C57.83 148.04 65.38 143.33 75.36 142.43C87.8 141.31 98.06 147.43 101.18 157.2C102.071 160.21 102.174 163.399 101.48 166.46C100.48 171.24 96.17 171.65 92.29 171.98C89 172.27 85.66 172.04 82.34 172.04ZM77.63 162.2C79.1158 162.294 80.6066 162.277 82.09 162.15C83.36 161.96 85.3 163.26 85.79 160.99C85.9439 160.111 85.86 159.208 85.5471 158.373C85.2341 157.537 84.7034 156.801 84.01 156.24C80.84 153.24 75.39 153.43 72.01 156.48C70.63 157.73 69.19 159.08 69.88 161.09C70.64 163.34 72.7 161.88 74.15 162.16C75.3064 162.279 76.4711 162.292 77.63 162.2Z" fill="black"/>
<path d="M122.65 91.1C122.65 96.57 122.56 102.03 122.65 107.49C122.74 111.09 121.88 114.37 118.11 115.12C114.34 115.87 109.93 116.81 107.42 112.5C106.13 110.29 105.62 110.32 103.64 111.89C97.73 116.56 90.85 116.89 84.23 114.09C77.61 111.29 74.81 105.48 74.84 98.33C74.84 90.38 74.84 82.43 74.84 74.49C74.84 69.61 78.21 66.7 83.49 66.84C88.77 66.98 91.67 69.76 91.69 74.43C91.69 81.43 91.69 88.34 91.69 95.29C91.69 99.76 94.04 101.65 99.01 101.63C103.1 101.63 105.96 100.63 105.76 95.56C105.47 88.45 105.65 81.33 105.7 74.21C105.7 69.61 108.95 66.85 114.11 66.84C119.27 66.83 122.5 69.6 122.56 74.21C122.7 79.84 122.65 85.47 122.65 91.1Z" fill="black"/>
<path d="M154.41 96.39C151.41 96.39 148.41 96.56 145.41 96.3C144.41 96.22 143.41 95.51 143.05 96.72C143.021 97.6396 143.327 98.5386 143.91 99.25C146.17 102.67 152.1 104.38 156.72 102.99C159.34 102.2 162.01 101.5 164.53 100.47C168.65 98.79 170.77 100.78 172.68 104.1C174.8 107.78 173.09 110.4 170.22 111.96C159.54 117.76 140.78 118.22 131.8 107.96C124.65 99.8 125.21 90.06 128.35 80.72C131.49 71.38 139.21 67.48 148.64 66.78C157.75 66.1 165.71 68.45 171.43 76.12C174.81 80.66 175.32 85.9 174.18 91.07C173 96.45 167.84 95.85 163.82 96.36C160.72 96.75 157.52 96.43 154.37 96.43L154.41 96.39ZM150.19 86.59C151.51 86.59 152.84 86.59 154.19 86.59C155.93 86.54 158.19 87.14 158.6 84.67C158.93 82.67 157.74 80.9 156.02 79.73C152.58 77.41 146.95 78.43 143.96 81.73C142.84 82.95 142.24 84.25 142.78 85.73C143.4 87.46 145.06 86.41 146.23 86.58C147.531 86.6803 148.837 86.6937 150.14 86.62L150.19 86.59Z" fill="black"/>
<path d="M122.07 148.39C128.36 141.74 136.07 142.28 143.51 144.02C149.51 145.43 153.42 151.87 153.51 158.68C153.63 167.29 153.58 175.91 153.51 184.52C153.51 188.94 151.24 190.91 146.28 191.06C139.56 191.27 136.86 189.64 136.72 184.77C136.53 177.77 136.72 170.86 136.66 163.9C136.66 159.26 133.98 156.39 129.77 156.27C124.9 156.13 122.6 158.55 122.59 163.86C122.59 170.49 122.65 177.11 122.59 183.74C122.52 189.51 120.34 191.13 113.03 191.06C107.5 191 105.76 189.25 105.75 183.67C105.75 173.07 105.75 162.47 105.75 151.87C105.75 148.43 105.16 144.45 109.65 143.51C115.18 142.31 119.95 142.67 122.07 148.39Z" fill="black"/>
<path d="M20.09 96.3C20.09 92.3 20 88.36 20.09 84.39C20.16 82.39 19.64 81.66 17.4 81.48C13.4 81.16 10.01 79.38 10.12 74.61C10.23 69.84 13.46 68.15 17.57 67.87C19.49 67.75 19.95 67.24 20.13 65.34C21.41 51.77 31.6 45.88 43.02 46.87C47.02 47.21 50.02 48.49 49.89 53.3C49.77 58.44 48.69 59.73 43.07 59.69C40.07 59.69 38.6 60.98 37.51 63.5C36.19 66.57 36.65 68.07 40.39 67.84C43.63 67.64 47 67.61 48.9 71.02C51.9 76.46 48.63 81.69 41.84 81.45C37.54 81.3 36.63 82.63 36.84 86.64C37.18 94.07 36.91 101.52 36.95 108.97C36.95 113.51 34.64 115.42 30.24 115.47C22.92 115.56 20.36 114.15 20.12 109.2C19.92 104.91 20.09 100.6 20.09 96.3Z" fill="black"/>
<path d="M237.33 92.8601C237.244 91.1945 237.244 89.5256 237.33 87.8601C237.71 84.0101 237.54 81.0401 232.28 80.9401C228.15 80.8601 227.47 77.5601 227.28 73.9401C227.05 69.6401 230.09 68.0601 233.01 68.0901C237.59 68.0901 237.84 65.8101 237.28 62.6301C235.62 53.0801 243.84 52.1601 250.28 54.2801C252.93 55.1601 253.93 57.2801 254.2 59.8901C254.47 62.5001 252.88 65.8901 255 67.3701C256.65 68.5601 259.81 67.5201 262.27 67.7901C266.38 68.2401 269.05 70.7101 269.01 74.7901C268.96 78.6401 266.3 80.9001 262.46 81.5001C261.306 81.67 260.134 81.67 258.98 81.5001C255.19 80.9201 253.64 82.1901 254.09 86.2201C254.48 89.6601 254.09 93.2201 254.2 96.6501C254.28 101.65 256.6 103.81 261.43 102.29C266.43 100.72 268.71 103.46 269.83 107.1C271.06 111.1 268.42 113.25 264.64 114.44C259.589 116.079 254.179 116.259 249.03 114.96C242.21 113.14 237.47 109.47 237.36 99.7601C237.31 97.5001 237.33 95.1801 237.33 92.8601Z" fill="black"/>
<path d="M273.67 191.02C268.387 191.576 263.066 190.419 258.49 187.72C254.41 185.45 252.82 182.21 254.37 178.86C255.92 175.51 260.26 174.08 264.14 175.61C268.02 177.14 271.61 179.56 276.14 179.18C277.65 179.05 279.52 179.3 279.99 177.69C280.55 175.78 278.77 174.69 277.26 174.14C273.04 172.57 268.65 171.43 264.49 169.72C256.4 166.41 253.97 162.98 254.33 156.17C254.62 150.58 258.91 145.37 265.75 143.7C274.13 141.64 282.5 141.98 290.44 146.02C293.84 147.75 296.26 149.87 294.68 154.09C293.32 157.74 289.68 159.09 285.3 157.76C281.76 156.67 278.41 154.82 274.51 155.15C272.89 155.29 270.88 154.85 270.41 156.93C269.94 159.01 272.02 159.29 273.24 159.75C277.16 161.21 281.24 162.36 285.15 163.75C293.37 166.61 297.15 172.04 296.1 179.37C295.21 185.63 288.34 190.81 280.56 191.03C278.53 191.07 276.54 191.02 273.67 191.02Z" fill="black"/>
<path d="M51.93 79.91C51.93 70.49 51.93 61.06 51.93 51.64C51.93 46.94 54.15 45 59.43 44.88C66.11 44.74 68.71 46.38 68.74 51.42C68.8467 70.6 68.8467 89.78 68.74 108.96C68.74 113.96 66.07 115.6 59.39 115.45C54.14 115.34 51.94 113.38 51.92 108.68C51.91 99.09 51.93 89.5 51.93 79.91Z" fill="black"/>
<path d="M233.33 167.04C233.33 161.25 233.28 155.47 233.33 149.68C233.38 144.93 236.02 142.75 241.65 142.68C246.65 142.59 250.05 144.96 250.12 149.33C250.31 161.23 250.33 173.13 250.12 185.03C250.04 189.93 246.94 191.45 239.35 191.03C235.15 190.82 233.24 188.59 233.35 184.4C233.41 178.61 233.33 172.82 233.33 167.04Z" fill="black"/>
<path d="M241.74 138.33C235.34 138.33 232.33 135.66 232.32 129.92C232.32 123.92 235 121.43 241.54 121.43C247.78 121.43 251.09 124.11 251.21 129.21C251.34 134.65 247.52 138.32 241.74 138.33Z" fill="black"/>
<path d="M237.31 18.94C238.16 20.77 238.78 22.19 239.48 23.57C239.9 24.39 240.99 25.26 239.48 25.85C238.61 26.2 237.8 26 237.22 24.74C236.22 22.56 234.6 20.68 233.53 18.53C233.07 17.6 232.15 16.46 233.58 15.15C235.01 13.84 236.03 14.88 237.02 15.33C238.719 16.2044 240.362 17.183 241.94 18.26C242.87 15.35 238.54 12.37 240.86 11.54C243.99 10.43 243.5 15.54 245.73 17.11C246.416 17.7996 246.901 18.6643 247.13 19.61C247.317 20.066 247.353 20.5696 247.235 21.0479C247.116 21.5261 246.848 21.9542 246.47 22.27C245.47 23.27 244.82 22.55 243.89 22.19C241.78 21.39 240.41 19.28 237.31 18.94Z" fill="black"/>
<path d="M270.71 11.07C269.585 12.6281 269.047 14.5336 269.19 16.45C269.31 17.76 268.45 18.1601 267.28 17.9401C267.072 17.9184 266.872 17.8444 266.7 17.7249C266.528 17.6053 266.389 17.4442 266.297 17.2565C266.204 17.0688 266.16 16.8606 266.169 16.6514C266.179 16.4422 266.241 16.2387 266.35 16.06C267.9 13.86 266.35 11.0601 267.86 8.97005C268.52 8.03005 267.41 5.97004 269.67 6.07004C271.24 6.14004 271.86 7.07006 272.35 8.49006C273 10.2901 273.93 11.9901 274.75 13.7501C275.767 12.5008 276.284 10.9186 276.2 9.31005C276.09 8.07005 276.27 6.84005 278.01 7.16005C279.75 7.48005 279.08 8.95005 279.01 9.97005C279.01 10.5701 278.32 11.1401 278.25 11.7501C277.93 14.5701 278.82 18.9801 275.63 19.3001C272.75 19.5801 272.69 14.8201 271.24 12.3801C271.12 12.1101 271.03 11.81 270.71 11.07Z" fill="black"/>
<path d="M322.89 63.94C322.83 67.36 319.19 70.81 315.81 70.64C312.43 70.47 308.57 66.78 309.26 64C310.05 60.81 311.67 57.83 315.74 57.81C319.06 57.8 322.93 61.17 322.89 63.94ZM315.89 66.82C317.7 66.82 319.8 66.98 319.97 64.5C320.16 61.65 317.62 61.14 315.67 60.9C315.219 60.856 314.765 60.9081 314.336 61.0529C313.907 61.1978 313.513 61.432 313.181 61.7401C312.85 62.0482 312.587 62.4233 312.411 62.8404C312.235 63.2576 312.149 63.7073 312.16 64.16C311.99 66.67 313.98 66.83 315.88 66.82H315.89Z" fill="black"/>
<path d="M228.08 21.96C228.927 21.9372 229.77 22.0915 230.554 22.413C231.338 22.7345 232.046 23.216 232.633 23.8269C233.221 24.4377 233.674 25.1644 233.964 25.9605C234.255 26.7565 234.376 27.6044 234.32 28.45C234.26 32.39 231.72 34.35 228.26 34.79C225.01 35.2 221 31.06 221.45 27.79C221.9 24.52 223.32 21.83 228.08 21.96ZM231.39 28.71C231.336 27.7114 230.909 26.7695 230.195 26.0698C229.48 25.3702 228.529 24.9635 227.53 24.93C225.62 24.78 224.18 25.59 224.41 27.66C224.484 28.7796 224.973 29.8313 225.781 30.6098C226.589 31.3883 227.658 31.8376 228.78 31.87C230.58 32.02 231.33 30.76 231.41 28.71H231.39Z" fill="black"/>
<path d="M319.11 79.56C319.05 83.48 317.28 86.08 313.5 86.47C309.72 86.86 305.77 82.96 306.18 79.47C306.61 75.76 308.86 73.47 312.76 73.75C316.24 74.04 319.12 75.46 319.11 79.56ZM313.05 76.68C310.23 76.59 309.19 77.43 309.05 79.51C308.81 82.69 311.43 82.83 313.26 83.2C313.696 83.2709 314.143 83.2445 314.568 83.1226C314.993 83.0008 315.386 82.7864 315.719 82.495C316.051 82.2035 316.315 81.8422 316.492 81.4368C316.668 81.0314 316.753 80.592 316.74 80.15C316.62 79.2346 316.187 78.389 315.514 77.7565C314.842 77.124 313.971 76.7437 313.05 76.68Z" fill="black"/>
<path d="M317.97 50.44C318.13 50.2341 318.344 50.0765 318.588 49.9849C318.832 49.8932 319.097 49.871 319.352 49.9208C319.608 49.9705 319.846 50.0902 320.038 50.2666C320.229 50.443 320.369 50.6692 320.44 50.92C321.15 52.39 319.51 53.07 318.81 53.32C316.11 54.32 313.27 54.89 310.48 55.64C310.276 55.7008 310.061 55.7203 309.85 55.6972C309.638 55.6741 309.433 55.609 309.246 55.5056C309.06 55.4022 308.896 55.2627 308.765 55.0951C308.633 54.9276 308.536 54.7354 308.48 54.53C308.2 53.69 309.21 53.34 309.76 52.82C310.76 51.89 313.53 52.75 312.68 50.04C311.91 47.59 310.44 47.29 308.27 48.64C307.52 49.11 306.73 48.14 306.37 47.42C305.61 45.92 307.11 45.9 307.85 45.58C309.926 44.6851 312.101 44.0406 314.33 43.66C315.71 43.42 317.21 42 318.18 43.75C319.4 45.94 316.76 45.53 315.92 46.33C315.456 46.6808 315.132 47.1867 315.009 47.7556C314.887 48.3245 314.972 48.9186 315.25 49.43C315.85 50.52 316.7 51.32 317.97 50.44Z" fill="black"/>
<path d="M286.08 18.39C285.5 18 284.65 17.64 284.23 18.69C283.81 19.74 284.72 20.14 285.33 20.69C286.13 21.4 288.33 21.09 287.45 22.98C286.37 25.26 284.84 23.22 283.74 22.85C277.41 20.73 282.12 17.05 282.74 14.13C283.55 10.47 285.63 8.79003 289.18 11.63C290.04 12.32 292.18 12.07 291.52 13.88C290.86 15.69 289.52 14.57 288.3 14.13C287.71 13.92 286.97 12.67 286.3 13.69C286.134 13.8749 286.018 14.1001 285.965 14.3432C285.912 14.5864 285.924 14.8391 285.999 15.0764C286.073 15.3137 286.209 15.5275 286.391 15.6965C286.574 15.8655 286.798 15.9839 287.04 16.04C287.87 16.33 289.04 16.64 288.55 17.87C288.472 18.1147 288.331 18.3344 288.141 18.5066C287.95 18.6788 287.718 18.7974 287.467 18.8503C287.215 18.9032 286.955 18.8885 286.711 18.8076C286.467 18.7267 286.25 18.5826 286.08 18.39Z" fill="black"/>
<path d="M294.64 25.85C295.26 26.21 295.86 26.34 296 26.66C296.51 27.94 297.2 29.44 298.68 28.66C299.68 28.15 299.04 26.66 298.5 25.59C297.31 23.19 298.5 21.24 300.56 20.32C302.62 19.4 304.61 20.94 305.88 22.61C306.34 23.21 307.47 24.47 306.02 25.48C304.3 26.68 304.33 24.98 303.75 24.18C303.536 23.7654 303.184 23.4386 302.755 23.256C302.326 23.0734 301.847 23.0465 301.4 23.18C300.9 25.94 304.28 29.51 300.45 31.69C299.715 32.0827 298.875 32.236 298.049 32.1284C297.222 32.0209 296.45 31.6578 295.84 31.09C295.025 30.5216 294.45 29.6702 294.229 28.7016C294.007 27.7329 294.153 26.7164 294.64 25.85Z" fill="black"/>
<path d="M313.81 38.82C312.08 36.82 312.11 33 308.37 33.98C302.09 35.6 307.37 39.88 306.85 43.22C303.18 41.3 301.02 39.01 302.49 35.22C303.7 32.05 309.17 29.66 311.59 31.29C314.01 32.92 316.7 34.8 313.81 38.82Z" fill="black"/>
<path d="M248.87 7.22998C252.71 11 250.18 19.03 259.29 17.38C251.42 22.23 251.17 22.03 249.14 14.91C248.262 12.4387 248.168 9.75682 248.87 7.22998Z" fill="black"/>
<path d="M304.8 90.48C304.37 90.5012 303.946 90.5855 303.54 90.73C302.27 91.55 300.93 93.88 299.54 92.11C298.32 90.55 301.03 89.33 301.72 87.78C302.61 85.78 304.36 86.53 305.81 87.6C307.88 89.12 309.98 90.6 312.05 92.13C312.71 92.62 313.4 93.35 312.79 94.13C312.502 94.4315 312.115 94.6188 311.699 94.6574C311.284 94.696 310.869 94.5833 310.53 94.34C308.52 93.08 306.57 91.69 304.8 90.48Z" fill="black"/>
<path d="M263.47 12.33C262.08 14.09 265.47 17.47 262.38 17.7C259.29 17.93 260.26 14.24 260.38 12.23C260.5 10.22 258.9 6.41997 261.5 6.41997C265.04 6.38997 262.23 10.39 263.47 12.33Z" fill="black"/>
<path d="M182.41 114.5L183.48 115.23C182.79 115.45 182.58 115 182.41 114.5Z" fill="black"/>
<path d="M190.47 115.25L191.56 114.5C191.41 115.01 191.16 115.47 190.47 115.25Z" fill="black"/>
<path d="M197.41 70.93L196.41 71.7C196.55 71.16 196.76 70.76 197.41 70.93Z" fill="black"/>
<path d="M179.49 70.67L178.79 71.67C178.49 70.98 179.01 70.84 179.49 70.67Z" fill="black"/>
<path d="M216.46 68.69L215.4 67.96C216.08 67.74 216.29 68.2 216.46 68.69Z" fill="black"/>
<path d="M202.41 68.01L201.41 68.71C201.55 68.23 201.75 67.77 202.41 68.01Z" fill="black"/>
<path d="M212.41 67.71L211.41 67.05C212.09 66.76 212.26 67.25 212.41 67.71Z" fill="black"/>
<path d="M207.41 67.05L206.41 67.71C206.54 67.24 206.71 66.76 207.41 67.05Z" fill="black"/>
<path d="M226.11 79.6499L225.38 78.58C225.88 78.76 226.34 78.9699 226.11 79.6499Z" fill="black"/>
<path d="M185.46 67.05L184.46 67.71C184.61 67.25 184.79 66.76 185.46 67.05Z" fill="black"/>
<path d="M194.46 112.51L195.18 111.51C195.41 112.17 194.96 112.39 194.46 112.51Z" fill="black"/>
<path d="M189.53 67.71L188.53 67.05C189.17 66.76 189.34 67.25 189.53 67.71Z" fill="black"/>
<path d="M209.7 185.09L210.38 186.14C209.91 185.95 209.41 185.77 209.7 185.09Z" fill="black"/>
<path d="M224.41 189.8L225.15 189.07C225.28 189.74 225.03 189.98 224.41 189.8Z" fill="black"/>
<path d="M213.32 190.07L214.32 190.79C213.69 191.02 213.49 190.56 213.32 190.07Z" fill="black"/>
<path d="M222.41 190.79L223.46 190.07C223.25 190.56 223.05 191.01 222.41 190.79Z" fill="black"/>
<path d="M178.77 110.5L179.47 111.56C178.99 111.39 178.52 111.18 178.77 110.5Z" fill="black"/>
</svg>
